<?xml version="1.0" encoding="utf-8"?>
<svg height="16" viewBox="0 0 16 16" width="16" xmlns="http://www.w3.org/2000/svg">
  <g fill="#000080">
    <path d="m14.988 2.83c0-.984-.798-1.782-1.782-1.782-.986 0-1.796.786-1.796 1.782 0 .998.798 1.784 1.796 1.784.996 0 1.782-.798 1.782-1.784" style="fill: rgb(167, 167, 212);"/>
    <path d="m7.096 2.83c-3.366 0-6.108 2.731-6.108 6.11 0 3.378 2.73 6.108 6.108 6.108 3.379 0 6.11-2.73 6.11-6.108 0-3.379-2.743-6.11-6.11-6.11zm.749 3.566c0-.984.798-1.782 1.783-1.782.984 0 1.782.798 1.782 1.782 0 .985-.798 1.783-1.782 1.783-.985 0-1.783-.798-1.783-1.783z" style="fill: rgb(167, 167, 212);"/>
  </g>
</svg>